<svg width="24" height="24" viewBox="0 0 24 24" fill="none" xmlns="http://www.w3.org/2000/svg">
<path d="M9.62379 12.7495C9.62379 12.9349 9.56881 13.1161 9.4658 13.2703C9.36278 13.4245 9.21637 13.5446 9.04506 13.6156C8.87375 13.6865 8.68525 13.7051 8.5034 13.6689C8.32154 13.6328 8.15449 13.5435 8.02338 13.4124C7.89227 13.2813 7.80298 13.1142 7.76681 12.9323C7.73063 12.7505 7.7492 12.562 7.82016 12.3907C7.89112 12.2194 8.01128 12.073 8.16545 11.9699C8.31962 11.8669 8.50087 11.812 8.68629 11.812C8.93494 11.812 9.17339 11.9107 9.34921 12.0865C9.52502 12.2624 9.62379 12.5008 9.62379 12.7495ZM15.4363 11.812C15.2509 11.812 15.0696 11.8669 14.9154 11.9699C14.7613 12.073 14.6411 12.2194 14.5702 12.3907C14.4992 12.562 14.4806 12.7505 14.5168 12.9323C14.553 13.1142 14.6423 13.2813 14.7734 13.4124C14.9045 13.5435 15.0715 13.6328 15.2534 13.6689C15.4353 13.7051 15.6238 13.6865 15.7951 13.6156C15.9664 13.5446 16.1128 13.4245 16.2158 13.2703C16.3188 13.1161 16.3738 12.9349 16.3738 12.7495C16.3738 12.5008 16.275 12.2624 16.0992 12.0865C15.9234 11.9107 15.6849 11.812 15.4363 11.812ZM22.34 17.5382L16.0588 20.3235C15.8882 20.3982 15.7041 20.4369 15.5179 20.437C15.2478 20.4372 14.984 20.355 14.762 20.2011C14.54 20.0473 14.3703 19.8293 14.2757 19.5763L13.4675 17.3835C13.0054 17.4182 12.5375 17.4379 12.0613 17.4379C11.585 17.4379 11.1182 17.4182 10.655 17.3835L9.84598 19.5763C9.75142 19.8292 9.58187 20.0471 9.36003 20.2009C9.1382 20.3547 8.87467 20.4371 8.60473 20.437C8.41853 20.4369 8.23435 20.3982 8.0638 20.3235L1.78254 17.5382C1.4995 17.4133 1.26968 17.1924 1.13366 16.9145C0.997635 16.6366 0.964147 16.3196 1.03911 16.0195L3.81129 5.10883C3.87485 4.86081 4.00921 4.63664 4.19799 4.46368C4.38676 4.29072 4.6218 4.17643 4.87442 4.13476L8.25504 3.57976C8.58141 3.52667 8.91585 3.59703 9.19316 3.77711C9.47048 3.95719 9.67079 4.23409 9.75504 4.55383L10.101 5.91601C11.4042 5.77726 12.7184 5.77726 14.0216 5.91601L14.3675 4.55383C14.4518 4.23409 14.6521 3.95719 14.9294 3.77711C15.2067 3.59703 15.5412 3.52667 15.8675 3.57976L19.2482 4.13476C19.5008 4.17643 19.7358 4.29072 19.9246 4.46368C20.1134 4.63664 20.2477 4.86081 20.3113 5.10883L23.0797 16.0195C23.155 16.3192 23.122 16.6358 22.9867 16.9136C22.8514 17.1915 22.6224 17.4126 22.34 17.5382ZM21.9932 16.296L19.2247 5.38539C19.2146 5.34905 19.1942 5.31641 19.1659 5.29145C19.1376 5.26649 19.1027 5.25028 19.0654 5.24476L15.6847 4.68695C15.6362 4.67827 15.5862 4.68783 15.5443 4.71379C15.5025 4.73975 15.4717 4.78028 15.4579 4.82758L15.1429 6.06883C15.6719 6.15965 16.196 6.2773 16.7132 6.42133C16.8468 6.45566 16.9632 6.53793 17.0402 6.65248C17.1171 6.76703 17.1493 6.90587 17.1305 7.04258C17.1118 7.1793 17.0434 7.30435 16.9384 7.39395C16.8335 7.48355 16.6993 7.53144 16.5613 7.52851C16.5099 7.52867 16.4587 7.52141 16.4094 7.50695C14.9922 7.12245 13.5297 6.93072 12.0613 6.93695C10.5929 6.93072 9.13035 7.12245 7.71317 7.50695C7.64141 7.52914 7.56592 7.53673 7.49118 7.52927C7.41644 7.52181 7.34394 7.49946 7.27798 7.46353C7.21201 7.4276 7.15391 7.37882 7.1071 7.32007C7.06029 7.26133 7.02572 7.1938 7.00543 7.12148C6.98515 7.04915 6.97955 6.9735 6.98897 6.89898C6.9984 6.82445 7.02265 6.75257 7.06031 6.68758C7.09796 6.62258 7.14825 6.56578 7.20821 6.52054C7.26817 6.47529 7.33659 6.44252 7.40942 6.42414C7.92655 6.28011 8.45066 6.16246 8.97973 6.07164L8.66473 4.83039C8.65169 4.78245 8.62116 4.74114 8.57917 4.71459C8.53717 4.68804 8.48676 4.67818 8.43786 4.68695L5.05723 5.24945C5.01991 5.25496 4.98499 5.27118 4.9567 5.29614C4.92841 5.3211 4.90797 5.35373 4.89786 5.39008L2.12942 16.296C2.11972 16.3387 2.12529 16.3835 2.14515 16.4226C2.16502 16.4616 2.19793 16.4925 2.23817 16.5098L8.51942 19.2941C8.54544 19.3055 8.57353 19.3114 8.60192 19.3114C8.63031 19.3114 8.6584 19.3055 8.68442 19.2941C8.70874 19.2841 8.73076 19.2691 8.74914 19.2503C8.76751 19.2314 8.78185 19.209 8.7913 19.1845L9.50192 17.2579C8.79523 17.1595 8.09587 17.0142 7.40848 16.8229C7.33565 16.8045 7.26723 16.7717 7.20727 16.7265C7.14731 16.6812 7.09702 16.6244 7.05937 16.5595C7.02172 16.4945 6.99746 16.4226 6.98804 16.3481C6.97861 16.2735 6.98421 16.1979 7.0045 16.1256C7.02479 16.0532 7.05935 15.9857 7.10616 15.927C7.15297 15.8682 7.21107 15.8194 7.27704 15.7835C7.343 15.7476 7.4155 15.7252 7.49024 15.7178C7.56499 15.7103 7.64047 15.7179 7.71223 15.7401C9.12963 16.1253 10.5925 16.3177 12.0613 16.312C13.5297 16.3182 14.9922 16.1265 16.4094 15.742C16.4812 15.7198 16.5567 15.7122 16.6314 15.7196C16.7062 15.7271 16.7786 15.7494 16.8446 15.7854C16.9106 15.8213 16.9687 15.8701 17.0155 15.9288C17.0623 15.9876 17.0969 16.0551 17.1172 16.1274C17.1374 16.1998 17.143 16.2754 17.1336 16.3499C17.1242 16.4245 17.0999 16.4963 17.0623 16.5613C17.0246 16.6263 16.9743 16.6831 16.9144 16.7284C16.8544 16.7736 16.786 16.8064 16.7132 16.8248C16.0258 17.0161 15.3264 17.1614 14.6197 17.2598L15.3304 19.1863C15.3398 19.2109 15.3541 19.2333 15.3725 19.2522C15.3909 19.271 15.4129 19.2859 15.4372 19.296C15.4633 19.3074 15.4913 19.3132 15.5197 19.3132C15.5481 19.3132 15.5762 19.3074 15.6022 19.296L21.8835 16.5116C21.9243 16.4944 21.9577 16.4634 21.9778 16.4239C21.9978 16.3844 22.0033 16.3391 21.9932 16.296Z" fill="black"/>
</svg>
