<svg width="210" height="46" viewBox="0 0 210 46" fill="none" xmlns="http://www.w3.org/2000/svg">
<path d="M50.4891 16.6797H44.3367L43.2586 19.1875C42.993 19.8047 42.8602 20.2656 42.8602 20.5703C42.8602 20.8125 42.9734 21.0273 43.2 21.2148C43.4344 21.3945 43.9344 21.5117 44.7 21.5664V22H39.6961V21.5664C40.3602 21.4492 40.7898 21.2969 40.9852 21.1094C41.3836 20.7344 41.825 19.9727 42.3094 18.8242L47.8992 5.74609H48.3094L53.8406 18.9648C54.2859 20.0273 54.6883 20.7188 55.0477 21.0391C55.4148 21.3516 55.9227 21.5273 56.5711 21.5664V22H50.3016V21.5664C50.9344 21.5352 51.3602 21.4297 51.5789 21.25C51.8055 21.0703 51.9187 20.8516 51.9187 20.5938C51.9187 20.25 51.7625 19.707 51.45 18.9648L50.4891 16.6797ZM50.1609 15.8125L47.4656 9.39062L44.7 15.8125H50.1609ZM72.8906 6.10938L73.0664 9.83594H72.6211C72.5352 9.17969 72.418 8.71094 72.2695 8.42969C72.0273 7.97656 71.7031 7.64453 71.2969 7.43359C70.8984 7.21484 70.3711 7.10547 69.7148 7.10547H67.4766V19.2461C67.4766 20.2227 67.582 20.832 67.793 21.0742C68.0898 21.4023 68.5469 21.5664 69.1641 21.5664H69.7148V22H62.9766V21.5664H63.5391C64.2109 21.5664 64.6875 21.3633 64.9687 20.957C65.1406 20.707 65.2266 20.1367 65.2266 19.2461V7.10547H63.3164C62.5742 7.10547 62.0469 7.16016 61.7344 7.26953C61.3281 7.41797 60.9805 7.70312 60.6914 8.125C60.4023 8.54688 60.2305 9.11719 60.1758 9.83594H59.7305L59.918 6.10938H72.8906ZM83.4914 6.97656V13.2578H86.9836C87.8898 13.2578 88.4953 13.1211 88.8 12.8477C89.2062 12.4883 89.4328 11.8555 89.4797 10.9492H89.9133V16.4805H89.4797C89.3703 15.707 89.2609 15.2109 89.1516 14.9922C89.0109 14.7188 88.7805 14.5039 88.4602 14.3477C88.1398 14.1914 87.6477 14.1133 86.9836 14.1133H83.4914V19.3516C83.4914 20.0547 83.5227 20.4844 83.5852 20.6406C83.6477 20.7891 83.757 20.9102 83.9133 21.0039C84.0695 21.0898 84.3664 21.1328 84.8039 21.1328H87.4992C88.3977 21.1328 89.05 21.0703 89.4562 20.9453C89.8625 20.8203 90.2531 20.5742 90.6281 20.207C91.1125 19.7227 91.6086 18.9922 92.1164 18.0156H92.5852L91.2141 22H78.968V21.5664H79.5305C79.9055 21.5664 80.2609 21.4766 80.5969 21.2969C80.8469 21.1719 81.0148 20.9844 81.1008 20.7344C81.1945 20.4844 81.2414 19.9727 81.2414 19.1992V8.875C81.2414 7.86719 81.1398 7.24609 80.9367 7.01172C80.6555 6.69922 80.1867 6.54297 79.5305 6.54297H78.968V6.10938H91.2141L91.3898 9.58984H90.9328C90.7687 8.75391 90.5852 8.17969 90.382 7.86719C90.1867 7.55469 89.8937 7.31641 89.5031 7.15234C89.1906 7.03516 88.6398 6.97656 87.8508 6.97656H83.4914ZM111.705 17.6055L112.092 17.6875L110.733 22H98.4281V21.5664H99.0258C99.6977 21.5664 100.178 21.3477 100.467 20.9102C100.631 20.6602 100.713 20.082 100.713 19.1758V8.92188C100.713 7.92969 100.604 7.30859 100.385 7.05859C100.08 6.71484 99.6273 6.54297 99.0258 6.54297H98.4281V6.10938H105.623V6.54297C104.78 6.53516 104.186 6.61328 103.842 6.77734C103.506 6.94141 103.276 7.14844 103.151 7.39844C103.026 7.64844 102.963 8.24609 102.963 9.19141V19.1758C102.963 19.8242 103.026 20.2695 103.151 20.5117C103.245 20.6758 103.389 20.7969 103.584 20.875C103.78 20.9531 104.389 20.9922 105.412 20.9922H106.573C107.791 20.9922 108.647 20.9023 109.139 20.7227C109.631 20.543 110.08 20.2266 110.487 19.7734C110.893 19.3125 111.299 18.5898 111.705 17.6055ZM124.826 21.5664V22H118.017V21.5664H118.58C119.236 21.5664 119.712 21.375 120.009 20.9922C120.197 20.7422 120.291 20.1406 120.291 19.1875V8.92188C120.291 8.11719 120.24 7.58594 120.138 7.32812C120.06 7.13281 119.9 6.96484 119.658 6.82422C119.314 6.63672 118.955 6.54297 118.58 6.54297H118.017V6.10938H124.826V6.54297H124.252C123.603 6.54297 123.13 6.73437 122.834 7.11719C122.638 7.36719 122.541 7.96875 122.541 8.92188V19.1875C122.541 19.9922 122.591 20.5234 122.693 20.7812C122.771 20.9766 122.935 21.1445 123.185 21.2852C123.521 21.4727 123.877 21.5664 124.252 21.5664H124.826ZM135.227 6.97656V13.2578H138.72C139.626 13.2578 140.231 13.1211 140.536 12.8477C140.942 12.4883 141.169 11.8555 141.216 10.9492H141.649V16.4805H141.216C141.106 15.707 140.997 15.2109 140.887 14.9922C140.747 14.7188 140.516 14.5039 140.196 14.3477C139.876 14.1914 139.384 14.1133 138.72 14.1133H135.227V19.3516C135.227 20.0547 135.259 20.4844 135.321 20.6406C135.384 20.7891 135.493 20.9102 135.649 21.0039C135.805 21.0898 136.102 21.1328 136.54 21.1328H139.235C140.134 21.1328 140.786 21.0703 141.192 20.9453C141.598 20.8203 141.989 20.5742 142.364 20.207C142.848 19.7227 143.345 18.9922 143.852 18.0156H144.321L142.95 22H130.704V21.5664H131.266C131.641 21.5664 131.997 21.4766 132.333 21.2969C132.583 21.1719 132.751 20.9844 132.837 20.7344C132.93 20.4844 132.977 19.9727 132.977 19.1992V8.875C132.977 7.86719 132.876 7.24609 132.673 7.01172C132.391 6.69922 131.923 6.54297 131.266 6.54297H130.704V6.10938H142.95L143.126 9.58984H142.669C142.505 8.75391 142.321 8.17969 142.118 7.86719C141.923 7.55469 141.63 7.31641 141.239 7.15234C140.927 7.03516 140.376 6.97656 139.587 6.97656H135.227ZM165.902 22H161.66L156.281 14.5703C155.883 14.5859 155.559 14.5938 155.309 14.5938C155.207 14.5938 155.098 14.5938 154.98 14.5938C154.863 14.5859 154.742 14.5781 154.617 14.5703V19.1875C154.617 20.1875 154.727 20.8086 154.945 21.0508C155.242 21.3945 155.688 21.5664 156.281 21.5664H156.902V22H150.094V21.5664H150.691C151.363 21.5664 151.844 21.3477 152.133 20.9102C152.297 20.668 152.379 20.0938 152.379 19.1875V8.92188C152.379 7.92188 152.27 7.30078 152.051 7.05859C151.746 6.71484 151.293 6.54297 150.691 6.54297H150.094V6.10938H155.883C157.57 6.10938 158.812 6.23438 159.609 6.48438C160.414 6.72656 161.094 7.17969 161.648 7.84375C162.211 8.5 162.492 9.28516 162.492 10.1992C162.492 11.1758 162.172 12.0234 161.531 12.7422C160.898 13.4609 159.914 13.9688 158.578 14.2656L161.859 18.8242C162.609 19.8711 163.254 20.5664 163.793 20.9102C164.332 21.2539 165.035 21.4727 165.902 21.5664V22ZM154.617 13.832C154.766 13.832 154.895 13.8359 155.004 13.8438C155.113 13.8438 155.203 13.8438 155.273 13.8438C156.789 13.8438 157.93 13.5156 158.695 12.8594C159.469 12.2031 159.855 11.3672 159.855 10.3516C159.855 9.35938 159.543 8.55469 158.918 7.9375C158.301 7.3125 157.48 7 156.457 7C156.004 7 155.391 7.07422 154.617 7.22266V13.832Z" fill="#010101"/>
<path d="M0 29H210" stroke="#7A2633" stroke-width="0.5"/>
<path d="M83.046 36H84.2022L86.921 42.6406H87.0147L89.7335 36H90.8897V44H89.9835V37.9219H89.9054L87.4054 44H86.5304L84.0304 37.9219H83.9522V44H83.046V36ZM103.982 40C103.982 40.8437 103.83 41.5729 103.525 42.1875C103.22 42.8021 102.802 43.276 102.271 43.6094C101.74 43.9427 101.133 44.1094 100.451 44.1094C99.7686 44.1094 99.1618 43.9427 98.6306 43.6094C98.0993 43.276 97.6813 42.8021 97.3767 42.1875C97.072 41.5729 96.9196 40.8437 96.9196 40C96.9196 39.1562 97.072 38.4271 97.3767 37.8125C97.6813 37.1979 98.0993 36.724 98.6306 36.3906C99.1618 36.0573 99.7686 35.8906 100.451 35.8906C101.133 35.8906 101.74 36.0573 102.271 36.3906C102.802 36.724 103.22 37.1979 103.525 37.8125C103.83 38.4271 103.982 39.1562 103.982 40ZM103.045 40C103.045 39.3073 102.929 38.7227 102.697 38.2461C102.468 37.7695 102.157 37.4089 101.763 37.1641C101.373 36.9193 100.935 36.7969 100.451 36.7969C99.9665 36.7969 99.5277 36.9193 99.1345 37.1641C98.7438 37.4089 98.4326 37.7695 98.2009 38.2461C97.9717 38.7227 97.8571 39.3073 97.8571 40C97.8571 40.6927 97.9717 41.2773 98.2009 41.7539C98.4326 42.2305 98.7438 42.5911 99.1345 42.8359C99.5277 43.0807 99.9665 43.2031 100.451 43.2031C100.935 43.2031 101.373 43.0807 101.763 42.8359C102.157 42.5911 102.468 42.2305 102.697 41.7539C102.929 41.2773 103.045 40.6927 103.045 40ZM112.48 44H110.011V36H112.589C113.365 36 114.029 36.1602 114.581 36.4805C115.133 36.7982 115.557 37.2552 115.851 37.8516C116.145 38.4453 116.292 39.1562 116.292 39.9844C116.292 40.8177 116.144 41.5352 115.847 42.1367C115.55 42.7357 115.118 43.1966 114.55 43.5195C113.982 43.8398 113.292 44 112.48 44ZM110.98 43.1406H112.417C113.079 43.1406 113.627 43.013 114.062 42.7578C114.497 42.5026 114.821 42.1393 115.034 41.668C115.248 41.1966 115.355 40.6354 115.355 39.9844C115.355 39.3385 115.249 38.7826 115.038 38.3164C114.827 37.8477 114.512 37.4883 114.093 37.2383C113.674 36.9857 113.152 36.8594 112.527 36.8594H110.98V43.1406ZM122.317 44V36H127.145V36.8594H123.286V39.5625H126.895V40.4219H123.286V43.1406H127.208V44H122.317Z" fill="#343434"/>
</svg>
